<svg width="76" height="71" viewBox="0 0 76 71" fill="none" xmlns="http://www.w3.org/2000/svg">
<path d="M74.029 28.5358L71.6068 27.2231C71.4226 27.1233 71.3224 26.9136 71.3574 26.7014C71.5212 25.7098 71.6043 24.6947 71.6043 23.6844C71.6043 22.6739 71.5212 21.6589 71.3574 20.6675C71.3223 20.4551 71.4226 20.2455 71.6068 20.1456L74.029 18.8331C74.6955 18.472 75.1815 17.873 75.3973 17.1462C75.6132 16.4197 75.5332 15.6523 75.1721 14.9861L72.4805 10.0192C71.7349 8.64358 70.0091 8.13092 68.6335 8.87639L66.2088 10.1903C66.0248 10.2903 65.7962 10.2611 65.6405 10.1183C63.7654 8.39717 61.6002 7.1053 59.2049 6.27827C58.9954 6.20592 58.8546 6.01592 58.8546 5.80561V3.05327C58.8546 1.48842 57.5815 0.215454 56.0168 0.215454H50.3677C48.803 0.215454 47.5299 1.48842 47.5299 3.05327V5.80561C47.5299 6.01592 47.3891 6.20592 47.1798 6.27827C44.7843 7.1053 42.619 8.39733 40.7441 10.1183C40.5883 10.2612 40.3599 10.2901 40.1757 10.1903L37.751 8.87624C36.3752 8.13077 34.6496 8.64374 33.904 10.0194L31.2126 14.9861C30.8515 15.6525 30.7715 16.4197 30.9874 17.1462C31.0754 17.4425 31.2104 17.7159 31.3819 17.9622H16.4663C15.819 17.9622 15.2941 18.4869 15.2941 19.1344C15.2941 19.7817 15.819 20.3065 16.4663 20.3065H53.5976C53.6657 20.3065 53.7212 20.362 53.7212 20.4301V27.0625H2.82835V20.4303C2.82835 20.362 2.88382 20.3067 2.95194 20.3067H11.1526C11.7999 20.3067 12.3248 19.782 12.3248 19.1345C12.3248 18.4872 11.7999 17.9623 11.1526 17.9623H2.95194C1.59116 17.9623 0.484131 19.0694 0.484131 20.4301V28.2345C0.484131 28.2428 0.485225 28.2508 0.485381 28.2589C0.485693 28.2722 0.486631 28.2851 0.487412 28.2984C0.4896 28.3401 0.493975 28.3814 0.500537 28.4219C0.5021 28.4315 0.503193 28.4412 0.504912 28.4508C0.514443 28.5015 0.526944 28.5511 0.542725 28.5992C0.544756 28.6056 0.547412 28.6119 0.5496 28.6181C0.564756 28.6617 0.582412 28.704 0.602412 28.745C0.606475 28.7536 0.610381 28.7622 0.614756 28.7706C0.638193 28.8161 0.664131 28.8598 0.693193 28.9017C0.697881 28.9084 0.703193 28.9148 0.708037 28.9215C0.734756 28.9584 0.763662 28.9936 0.794444 29.027C0.798975 29.032 0.802412 29.0376 0.8071 29.0425L21.8948 51.2001C22.1133 51.4298 22.2337 51.7309 22.2337 52.0478V63.9231C22.2337 64.6383 22.6204 65.3012 23.2426 65.6531L31.3485 70.239C31.6558 70.413 31.9919 70.4998 32.3277 70.4997C32.6721 70.4997 33.0162 70.4084 33.3288 70.2262C33.9465 69.8661 34.3152 69.2242 34.3152 68.509V62.7973C34.3152 62.15 33.7904 61.6251 33.143 61.6251C32.4957 61.6251 31.9708 62.1498 31.9708 62.7973V67.8978L24.5777 63.7151V52.0478C24.5777 51.1265 24.2279 50.2515 23.5926 49.584L4.38976 29.4067H52.1594L49.7933 31.893C49.791 31.8955 49.7887 31.898 49.7863 31.9005L32.9562 49.5845C32.321 50.2519 31.9712 51.1269 31.9712 52.0481V57.3278C31.9712 57.9751 32.496 58.5 33.1434 58.5C33.7907 58.5 34.3155 57.9753 34.3155 57.3278V52.0481C34.3155 51.7311 34.4358 51.4301 34.6544 51.2006L45.1008 40.224C45.7762 40.5547 46.4716 40.8464 47.1796 41.0908C47.3891 41.1631 47.5299 41.3531 47.5299 41.5634V44.3158C47.5299 45.8806 48.803 47.1536 50.3677 47.1536H56.0168C57.5815 47.1536 58.8546 45.8806 58.8546 44.3158V41.5634C58.8546 41.3531 58.9954 41.1631 59.2049 41.0908C61.6005 40.2636 63.7658 38.9717 65.6405 37.2508C65.7965 37.108 66.0247 37.0792 66.209 37.1787L68.6337 38.4928C70.0093 39.2383 71.7351 38.7255 72.4807 37.3497L75.1719 32.3828C75.533 31.7164 75.613 30.9492 75.3971 30.2226C75.1813 29.4958 74.6954 28.8969 74.029 28.5358ZM73.1108 31.2659L70.4194 36.2325C70.2898 36.4719 69.9898 36.5611 69.7502 36.4315L67.3259 35.1176C66.2624 34.5414 64.948 34.7042 64.0552 35.5236C62.4188 37.0258 60.5294 38.1534 58.4398 38.875C57.2857 39.2734 56.5104 40.3539 56.5104 41.5634V44.3158C56.5104 44.588 56.289 44.8094 56.0168 44.8094H50.3677C50.0955 44.8094 49.8741 44.588 49.8741 44.3158V41.5634C49.8741 40.3539 49.0988 39.2736 47.9446 38.8748C47.5608 38.7423 47.1819 38.5922 46.808 38.4301L51.0107 34.0142C51.7249 34.1644 52.4558 34.2401 53.1923 34.2401C55.0593 34.2401 56.8946 33.7458 58.4998 32.8108C59.059 32.485 59.2484 31.7673 58.9224 31.208C58.5965 30.6486 57.879 30.4598 57.3194 30.7851C56.0723 31.5117 54.6452 31.8959 53.1923 31.8959C53.1379 31.8959 53.0837 31.8942 53.0293 31.8931L55.7421 29.0426C55.7468 29.0378 55.7502 29.0322 55.7548 29.0272C55.7855 28.9937 55.8144 28.9586 55.8412 28.9217C55.846 28.915 55.8513 28.9086 55.856 28.9019C55.8851 28.8601 55.911 28.8162 55.9344 28.7708C55.9388 28.7623 55.9426 28.7537 55.9468 28.7451C55.9668 28.704 55.9844 28.6619 55.9996 28.6183C56.0018 28.6119 56.0044 28.6058 56.0065 28.5994C56.0223 28.5512 56.0349 28.5017 56.0443 28.4509C56.0462 28.4414 56.0471 28.4317 56.0487 28.422C56.0552 28.3815 56.0596 28.3403 56.0618 28.2986C56.0626 28.2855 56.0635 28.2723 56.0638 28.259C56.064 28.2508 56.0651 28.2428 56.0651 28.2347V20.4303C56.0651 19.0695 54.958 17.9625 53.5973 17.9625H47.3033C48.8304 16.3933 50.9462 15.4733 53.1921 15.4733C57.7199 15.4733 61.4037 19.1569 61.4037 23.6847C61.4037 24.9747 61.1135 26.2087 60.5412 27.3528C60.2516 27.9317 60.486 28.6359 61.0649 28.9255C61.2333 29.0097 61.4123 29.0497 61.5885 29.0497C62.0183 29.0495 62.4323 28.8122 62.6377 28.4017C63.3744 26.9292 63.7479 25.3423 63.7479 23.6848C63.7479 17.8644 59.0126 13.1292 53.1921 13.1292C49.5949 13.1292 46.2573 14.9645 44.3207 17.9626H35.6684L33.4721 16.7723C33.3157 16.6876 33.256 16.5522 33.2343 16.4792C33.2126 16.4059 33.1887 16.2598 33.2735 16.1034L35.9649 11.1369C36.0946 10.8975 36.3949 10.8084 36.6341 10.9378L39.0585 12.2517C40.1221 12.8281 41.4365 12.6653 42.3291 11.8458C43.9657 10.3436 45.8551 9.21592 47.9448 8.49436C49.0988 8.09608 49.8741 7.01545 49.8741 5.80592V3.05327C49.8741 2.78108 50.0955 2.55967 50.3677 2.55967H56.0168C56.289 2.55967 56.5104 2.78108 56.5104 3.05327V5.80561C56.5104 7.01514 57.2857 8.09545 58.4398 8.49405C60.5293 9.21561 62.4187 10.3433 64.0554 11.8455C64.9479 12.6648 66.2623 12.8278 67.3259 12.2514L69.7504 10.9376C69.9898 10.8078 70.2899 10.897 70.4196 11.1364L73.111 16.1031C73.1958 16.2595 73.1719 16.4056 73.1502 16.4789C73.1285 16.552 73.0687 16.6873 72.9123 16.7722L70.4899 18.0848C69.4276 18.6605 68.8468 19.852 69.0446 21.0498C69.1876 21.9153 69.2601 22.8017 69.2601 23.6845C69.2601 24.5673 69.1876 25.4537 69.0444 26.3194C68.8466 27.517 69.4274 28.7084 70.4898 29.2842L72.9121 30.597C73.0685 30.6817 73.1282 30.8172 73.1499 30.8901C73.1718 30.9634 73.1957 31.1095 73.1108 31.2659Z" fill="#323232"/>
</svg>
