<svg width="81" height="80" viewBox="0 0 81 80" fill="none" xmlns="http://www.w3.org/2000/svg">
<g clip-path="url(#clip0_167_132)">
<path d="M77.9278 27.3841C77.9589 27.1717 77.9747 26.9572 77.9747 26.7417C77.9747 24.2678 75.962 22.2552 73.4883 22.2552C72.4984 22.2552 71.562 22.5756 70.7989 23.1502C69.6366 21.8908 67.9894 21.1503 66.2278 21.1503C63.3127 21.1503 60.8409 23.1659 60.1795 25.9072C58.2716 26.0655 56.5695 27.0823 55.5266 28.6525C55.063 28.493 54.5742 28.4108 54.0744 28.4108C51.6005 28.4108 49.588 30.4234 49.588 32.8973C49.588 32.9795 49.5903 33.0619 49.5949 33.1439C47.4436 33.8519 45.8374 35.6903 45.4281 37.9266C42.7394 38.2528 40.5741 40.3009 40.0706 42.9319H39.5533C38.0367 42.9319 36.803 44.1656 36.803 45.6822V48.8389C36.803 50.2453 37.8647 51.4067 39.2284 51.5681L36.9649 78.7306C36.9111 79.3756 37.3905 79.942 38.0353 79.9958C38.0684 79.9987 38.1013 79.9998 38.1339 79.9998C38.737 79.9998 39.2495 79.5372 39.3005 78.9253L41.5784 51.5891H59.9406L60.3955 57.0464C60.4464 57.6583 60.9588 58.1209 61.562 58.1209C61.5945 58.1209 61.6275 58.1197 61.6606 58.1169C62.3055 58.0631 62.7849 57.4967 62.7311 56.8517L62.2908 51.5681C63.6545 51.4067 64.7163 50.2452 64.7163 48.8389V45.6822C64.7163 44.6263 64.1172 43.7086 63.2419 43.248C63.5463 42.9158 63.8177 42.5514 64.0456 42.1559C65.4199 42.9533 66.9909 43.3817 68.5953 43.3817C72.1789 43.3817 75.3583 41.3244 76.8336 38.0975C79.047 37.1003 80.5 34.8838 80.5 32.4238C80.5 30.4013 79.5342 28.5439 77.9278 27.3841ZM62.3725 48.8389C62.3725 49.0631 62.1902 49.2455 61.9659 49.2455H39.553C39.3288 49.2455 39.1464 49.0631 39.1464 48.8389V45.6822C39.1464 45.458 39.3288 45.2756 39.553 45.2756H61.9659C62.1902 45.2756 62.3725 45.458 62.3725 45.6822V48.8389ZM75.5581 36.0853C75.5538 36.0869 75.5499 36.0889 75.5455 36.0905C75.1394 36.2308 74.7128 36.3025 74.2774 36.3025C73.3411 36.3025 72.4372 35.9645 71.732 35.3508C71.2439 34.9259 70.5036 34.9769 70.0788 35.4653C69.6539 35.9534 69.7052 36.6936 70.1933 37.1186C71.1942 37.9898 72.4444 38.5141 73.7589 38.6238C72.5084 40.1323 70.6409 41.0377 68.5952 41.0377C67.02 41.0377 65.488 40.4806 64.2813 39.4689C63.9747 39.2119 63.5578 39.1291 63.1763 39.2492C62.7945 39.3695 62.5006 39.6761 62.3967 40.0627C61.9425 41.752 60.4024 42.9317 58.6513 42.9317H58.0147C58.3625 42.2947 58.5605 41.5645 58.5605 40.7889C58.5605 39.7355 58.1878 38.7113 57.5111 37.9052C57.095 37.4092 56.3558 37.345 55.8602 37.7611C55.3645 38.1772 55.3 38.9164 55.7161 39.412C56.0438 39.8022 56.2169 40.2783 56.2169 40.7889C56.2169 41.9705 55.2556 42.9317 54.0742 42.9317H42.4842C42.9822 41.3638 44.4516 40.2247 46.1822 40.2247C46.2638 40.2247 46.3445 40.2281 46.4247 40.2333C46.7469 40.2538 47.0645 40.1392 47.3003 39.9178C47.5363 39.6963 47.67 39.3872 47.67 39.0636C47.67 39.0573 47.67 39.0494 47.6699 39.0416C47.6755 37.0758 49.1477 35.4255 51.0991 35.2008C51.4558 35.1595 51.7741 34.957 51.9625 34.6514C52.1509 34.3456 52.1888 33.9703 52.0652 33.633C51.9766 33.3911 51.9316 33.1433 51.9316 32.8969C51.9316 31.7153 52.8928 30.7541 54.0742 30.7541C54.5264 30.7541 54.9608 30.8961 55.3305 31.165C55.3363 31.1692 55.3427 31.1725 55.3486 31.1766C55.8747 31.5673 56.217 32.1925 56.217 32.8969C56.217 33.5442 56.7417 34.0688 57.3889 34.0688C58.0361 34.0688 58.5608 33.5442 58.5608 32.8969C58.5608 31.7786 58.148 30.7561 57.4689 29.9695C58.177 28.8934 59.3775 28.2288 60.7036 28.2288C60.823 28.2288 60.948 28.2348 61.0753 28.247C61.3914 28.277 61.7078 28.177 61.9495 27.9695C62.1911 27.762 62.338 27.465 62.3561 27.1472C62.4731 25.0984 64.1738 23.4934 66.228 23.4934C67.6591 23.4934 68.9695 24.278 69.6477 25.5409C69.6486 25.5427 69.6497 25.5441 69.6506 25.5458C69.9533 26.1111 70.1069 26.7258 70.1069 27.3725C70.1069 27.7875 70.0419 28.1956 69.9139 28.5853C69.7119 29.2002 70.0466 29.8623 70.6614 30.0644C70.783 30.1044 70.9061 30.1233 71.0275 30.1233C71.52 30.1233 71.9784 29.8103 72.1406 29.3169C72.3463 28.6906 72.4506 28.0366 72.4506 27.3727C72.4506 26.6169 72.3109 25.8659 72.0447 25.1631C72.4344 24.8039 72.9441 24.5986 73.4884 24.5986C74.67 24.5986 75.6311 25.5598 75.6311 26.7414C75.6311 27.0002 75.5824 27.2584 75.4863 27.5083C75.2716 28.067 75.5125 28.6978 76.045 28.9713C77.3474 29.6395 78.1564 30.9625 78.1564 32.4234C78.1563 34.0702 77.1122 35.5417 75.5581 36.0853Z" fill="#323232"/>
<path d="M43.0255 28.0713C46.2263 28.0713 49.1771 26.3705 50.8012 23.663C51.2524 23.7605 51.7135 23.8095 52.1802 23.8095C55.7855 23.8095 58.7187 20.8766 58.7187 17.2711C58.7187 16.7812 58.6647 16.2981 58.5577 15.8263C60.4094 14.6363 61.5596 12.5752 61.5596 10.3264C61.5596 6.72109 58.6266 3.78797 55.0213 3.78797C54.8513 3.78797 54.6811 3.79453 54.5118 3.80766C52.8213 1.44109 50.0605 0 47.1293 0C44.4015 0 41.8383 1.22516 40.1235 3.31344C39.3299 3.16391 38.5255 3.11984 37.7096 3.18766C37.0322 2.19766 35.8996 1.57828 34.6601 1.57828C33.4163 1.57828 32.2691 2.21719 31.593 3.21594C31.3021 3.17641 31.0085 3.15656 30.7141 3.15656C27.5074 3.15656 24.8322 5.47734 24.2802 8.52734C19.7724 8.66375 16.0821 12.1078 15.5583 16.5094C13.9304 16.7891 12.4649 17.6772 11.4621 18.9952C11.2537 18.9587 11.0416 18.9403 10.8266 18.9403C8.78803 18.9403 7.12928 20.5989 7.12928 22.6375C7.12928 22.6986 7.13084 22.7595 7.13381 22.8205C5.61287 23.8006 4.56396 25.3758 4.23865 27.1478H3.88162C2.36506 27.1478 1.13131 28.3816 1.13131 29.8981V33.0548C1.13131 34.4662 2.20053 35.6316 3.57131 35.7864L0.503026 78.7447C0.456932 79.3903 0.94287 79.9509 1.58849 79.997C1.61693 79.9992 1.64506 80.0002 1.67318 80.0002C2.28224 80.0002 2.79678 79.5287 2.84084 78.9117L5.9199 35.8055H25.8349L26.3752 43.3686C26.4193 43.9858 26.9337 44.457 27.5429 44.457C27.571 44.457 27.5991 44.4561 27.6276 44.4539C28.2732 44.4078 28.7591 43.8472 28.713 43.2016L28.1833 35.7866C29.5541 35.6317 30.6233 34.4664 30.6233 33.055V29.8984C30.6233 29.0023 30.1905 28.2075 29.5252 27.705C30.0301 27.2272 30.4627 26.668 30.7977 26.0398C31.7907 26.247 32.8421 26.2188 33.8227 25.957C34.3268 26.2058 34.8794 26.3353 35.4493 26.3353C36.0566 26.3353 36.6402 26.1902 37.1619 25.9161C38.791 27.2959 40.8765 28.0713 43.0255 28.0713ZM35.4493 23.9914C35.1652 23.9914 34.8918 23.9022 34.6587 23.7334C34.3435 23.5053 33.9358 23.4487 33.5704 23.5816C32.9168 23.8195 32.2065 23.8841 31.5174 23.7823C31.5521 23.5084 31.5704 23.2319 31.5704 22.9536C31.5704 21.9023 31.3146 20.8569 30.8307 19.9302C30.5312 19.3563 29.823 19.1345 29.2494 19.4338C28.6757 19.7334 28.4535 20.4412 28.7532 21.015C29.1932 21.9255 29.4043 23.0012 29.0197 24.255C28.4554 25.9855 26.8529 27.1481 25.0321 27.1481H14.8165C14.1693 27.1481 13.6446 27.6727 13.6446 28.32C13.6446 28.9673 14.1693 29.4919 14.8165 29.4919H27.873C28.0972 29.4919 28.2796 29.6742 28.2796 29.8984V33.0552C28.2796 33.2794 28.0972 33.4617 27.873 33.4617H3.88162C3.6574 33.4617 3.47506 33.2794 3.47506 33.0552V29.8984C3.47506 29.6742 3.6574 29.4919 3.88162 29.4919H9.33428C9.98146 29.4919 10.5062 28.9673 10.5062 28.32C10.5062 27.6727 9.98146 27.1481 9.33428 27.1481H6.64303C6.9799 25.9983 7.80146 25.0208 8.92271 24.5062C9.46724 24.2562 9.73568 23.6359 9.54474 23.068C9.49709 22.9264 9.47303 22.7816 9.47303 22.6378C9.47303 21.8916 10.0802 21.2844 10.8266 21.2844C11.0361 21.2844 11.2394 21.3331 11.4307 21.4289C11.9946 21.7119 12.681 21.4973 12.984 20.9439C13.7216 19.5961 15.1326 18.7589 16.6666 18.7589C17.7547 18.7589 18.7863 19.1737 19.5713 19.9273C19.7985 20.1455 20.0908 20.2539 20.3827 20.2539C20.6907 20.2539 20.9982 20.1333 21.2283 19.8936C21.6765 19.4267 21.6613 18.6848 21.1944 18.2367C20.2777 17.3567 19.1452 16.773 17.9215 16.5355C18.4279 13.3278 21.211 10.8672 24.5587 10.8672C25.7001 10.8355 27.3613 11.3061 28.4555 12.1117C28.6618 12.2587 28.8996 12.3297 29.1351 12.3297C29.501 12.3297 29.8615 12.1587 30.0901 11.8381C30.4658 11.3112 30.3433 10.5794 29.8165 10.2036C28.8465 9.51188 27.7658 9.02875 26.6254 8.76328C27.0507 6.89781 28.7219 5.50094 30.7143 5.50094C31.1183 5.50094 31.5202 5.55938 31.9085 5.67438C32.5283 5.85797 33.179 5.50594 33.3643 4.88703C33.5343 4.31906 34.0672 3.9225 34.6601 3.9225C35.2366 3.9225 35.7504 4.29 35.9383 4.83672C36.1263 5.38328 36.6844 5.71141 37.2535 5.60906C38.2844 5.42437 39.3026 5.47906 40.2824 5.75641C40.7677 5.89359 41.2863 5.705 41.5702 5.28828C42.8252 3.44438 44.9033 2.34375 47.1293 2.34375C49.4999 2.34375 51.7207 3.61609 52.9252 5.66406C53.1793 6.09625 53.6802 6.31891 54.1712 6.21797C54.4491 6.16094 54.7352 6.13188 55.0213 6.13188C57.3343 6.13188 59.2158 8.01359 59.2158 10.3266C59.2158 11.9998 58.223 13.5113 56.6865 14.1769C56.1021 14.43 55.8269 15.1036 56.0668 15.6934C56.2712 16.1963 56.3747 16.727 56.3747 17.2714C56.3747 19.5844 54.493 21.4661 52.1801 21.4661C52.0382 21.4661 51.8971 21.4584 51.7571 21.4444C51.9769 20.6564 52.0891 19.8414 52.0891 19.0078C52.0891 17.4147 51.6696 15.8472 50.8758 14.475C50.5518 13.9148 49.8346 13.7236 49.2746 14.0475C48.7144 14.3716 48.5229 15.0884 48.8469 15.6488C49.4346 16.6647 49.7454 17.8263 49.7454 19.0078C49.7454 19.9645 49.5482 20.8877 49.1607 21.7522C49.156 21.7617 49.1507 21.7706 49.1463 21.7803C48.058 24.1783 45.6554 25.7278 43.0254 25.7278C41.1461 25.7278 39.4029 24.9703 38.1169 23.595C37.8979 23.3606 37.5924 23.2266 37.2716 23.2234C37.268 23.2234 37.2644 23.2234 37.2608 23.2234C36.9441 23.2234 36.6405 23.3517 36.4197 23.5794C36.1619 23.845 35.8172 23.9914 35.4493 23.9914Z" fill="#323232"/>
<path d="M44.7517 10.867C45.3989 10.867 45.9236 10.3425 45.9236 9.69516C45.9236 9.14297 46.3728 8.69376 46.925 8.69376C47.4772 8.69376 47.9264 9.14297 47.9264 9.69516C47.9264 10.3425 48.4511 10.867 49.0983 10.867C49.7455 10.867 50.2701 10.3425 50.2701 9.69516C50.2701 7.85063 48.7695 6.35001 46.925 6.35001C45.0805 6.35001 43.5798 7.85063 43.5798 9.69516C43.5798 10.3425 44.1045 10.867 44.7517 10.867Z" fill="#323232"/>
<path d="M41.511 18.845C42.8152 17.5406 42.8152 15.4184 41.511 14.1142C41.0533 13.6567 40.3113 13.6567 39.8538 14.1142C39.3961 14.572 39.3961 15.3139 39.8538 15.7716C40.2442 16.1619 40.2442 16.7972 39.8538 17.1875C39.4633 17.5781 38.8282 17.5781 38.4377 17.1875C37.98 16.73 37.238 16.73 36.7805 17.1875C36.3228 17.6453 36.3228 18.3872 36.7805 18.8448C37.4325 19.4969 38.2892 19.823 39.1458 19.823C40.0024 19.823 40.8588 19.4969 41.511 18.845Z" fill="#323232"/>
<path d="M29.103 48.6633C29.057 48.0177 28.4957 47.5303 27.8507 47.578C27.2051 47.6241 26.7191 48.1847 26.7652 48.8303L28.9138 78.9117C28.9579 79.5289 29.4723 80.0002 30.0815 80.0002C30.1096 80.0002 30.1377 79.9992 30.1662 79.997C30.8118 79.9509 31.2977 79.3903 31.2516 78.7447L29.103 48.6633Z" fill="#323232"/>
<path d="M63.1864 62.3134C63.1327 61.6684 62.5674 61.187 61.9213 61.243C61.2764 61.2967 60.797 61.8631 60.8508 62.5081L62.2189 78.9255C62.2699 79.5374 62.7822 80 63.3855 80C63.418 80 63.4509 79.9988 63.4841 79.9959C64.1289 79.9422 64.6083 79.3758 64.5545 78.7308L63.1864 62.3134Z" fill="#323232"/>
<path d="M64.3759 29.5522C62.5314 29.5522 61.0308 31.0528 61.0308 32.8973C61.0308 33.5447 61.5554 34.0692 62.2026 34.0692C62.8498 34.0692 63.3745 33.5447 63.3745 32.8973C63.3745 32.3452 63.8237 31.8959 64.3759 31.8959C64.9281 31.8959 65.3773 32.3452 65.3773 32.8973C65.3773 33.5447 65.902 34.0692 66.5492 34.0692C67.1964 34.0692 67.7211 33.5447 67.7211 32.8973C67.7211 31.0528 66.2204 29.5522 64.3759 29.5522Z" fill="#323232"/>
</g>
<defs>
<clipPath id="clip0_167_132">
<rect width="80" height="80" fill="white" transform="translate(0.5)"/>
</clipPath>
</defs>
</svg>
