<svg width="80" height="80" viewBox="0 0 80 80" fill="none" xmlns="http://www.w3.org/2000/svg">
<g clip-path="url(#clip0_167_154)">
<path d="M45.1936 71.9686C45.8408 71.9686 46.3655 71.4439 46.3655 70.7967V67.637C46.3655 66.9898 45.8408 66.4651 45.1936 66.4651C44.5464 66.4651 44.0217 66.9898 44.0217 67.637V70.7967C44.0217 71.4439 44.5464 71.9686 45.1936 71.9686Z" fill="#323232"/>
<path d="M34.8018 71.9866C35.4489 71.9866 35.9736 71.4619 35.9736 70.8147V67.6595C35.9736 67.0124 35.4489 66.4877 34.8018 66.4877C34.1546 66.4877 33.6299 67.0124 33.6299 67.6595V70.8147C33.6299 71.4619 34.1546 71.9866 34.8018 71.9866Z" fill="#323232"/>
<path d="M67.1526 52.9066H73.9012C74.5484 52.9066 75.0731 52.3819 75.0731 51.7347C75.0731 51.0875 74.5484 50.5628 73.9012 50.5628H67.1526C66.5054 50.5628 65.9807 51.0875 65.9807 51.7347C65.9807 52.3819 66.5054 52.9066 67.1526 52.9066Z" fill="#323232"/>
<path d="M67.1526 60.6136H73.9012C74.5484 60.6136 75.0731 60.0889 75.0731 59.4417C75.0731 58.7945 74.5484 58.2698 73.9012 58.2698H67.1526C66.5054 58.2698 65.9807 58.7945 65.9807 59.4417C65.9807 60.0889 66.5054 60.6136 67.1526 60.6136Z" fill="#323232"/>
<path d="M67.1526 68.3206H73.9012C74.5484 68.3206 75.0731 67.7959 75.0731 67.1487C75.0731 66.5016 74.5484 65.9769 73.9012 65.9769H67.1526C66.5054 65.9769 65.9807 66.5016 65.9807 67.1487C65.9807 67.7959 66.5054 68.3206 67.1526 68.3206Z" fill="#323232"/>
<path d="M67.1526 45.1994H73.9012C74.5484 45.1994 75.0731 44.6747 75.0731 44.0275C75.0731 43.3803 74.5484 42.8556 73.9012 42.8556H67.1526C66.5054 42.8556 65.9807 43.3803 65.9807 44.0275C65.9807 44.6747 66.5054 45.1994 67.1526 45.1994Z" fill="#323232"/>
<path d="M12.8475 50.5628H6.09888C5.45169 50.5628 4.927 51.0875 4.927 51.7347C4.927 52.3819 5.45169 52.9066 6.09888 52.9066H12.8475C13.4947 52.9066 14.0193 52.3819 14.0193 51.7347C14.0193 51.0875 13.4947 50.5628 12.8475 50.5628Z" fill="#323232"/>
<path d="M12.8475 58.2698H6.09888C5.45169 58.2698 4.927 58.7945 4.927 59.4417C4.927 60.0889 5.45169 60.6136 6.09888 60.6136H12.8475C13.4947 60.6136 14.0193 60.0889 14.0193 59.4417C14.0193 58.7945 13.4947 58.2698 12.8475 58.2698Z" fill="#323232"/>
<path d="M12.8475 65.9769H6.09888C5.45169 65.9769 4.927 66.5016 4.927 67.1487C4.927 67.7959 5.45169 68.3206 6.09888 68.3206H12.8475C13.4947 68.3206 14.0193 67.7959 14.0193 67.1487C14.0193 66.5016 13.4947 65.9769 12.8475 65.9769Z" fill="#323232"/>
<path d="M12.8475 42.8556H6.09888C5.45169 42.8556 4.927 43.3803 4.927 44.0275C4.927 44.6747 5.45169 45.1994 6.09888 45.1994H12.8475C13.4947 45.1994 14.0193 44.6747 14.0193 44.0275C14.0193 43.3803 13.4947 42.8556 12.8475 42.8556Z" fill="#323232"/>
<path d="M31.7914 30.0091H26.3672C25.4494 30.0091 24.7026 30.7578 24.7026 31.6781V36.6053C24.7026 37.5256 25.4494 38.2744 26.3672 38.2744H31.7914C32.7117 38.2744 33.4604 37.5256 33.4604 36.6053V31.6781C33.4604 30.7578 32.7117 30.0091 31.7914 30.0091ZM31.1167 35.9306H27.0464V32.3528H31.1167V35.9306Z" fill="#323232"/>
<path d="M37.288 30.0091C36.3676 30.0091 35.6189 30.7578 35.6189 31.6781V36.6053C35.6189 37.5256 36.3676 38.2744 37.288 38.2744H42.7122C43.63 38.2744 44.3767 37.5256 44.3767 36.6053V31.6781C44.3767 30.7578 43.63 30.0091 42.7122 30.0091H37.288ZM42.033 35.9306H37.9626V32.3528H42.033V35.9306Z" fill="#323232"/>
<path d="M48.2086 38.2744H53.6283C54.5486 38.2744 55.2974 37.5256 55.2974 36.6053V31.6781C55.2974 30.7578 54.5486 30.0091 53.6283 30.0091H48.2086C47.2883 30.0091 46.5396 30.7578 46.5396 31.6781V36.6053C46.5396 37.5256 47.2883 38.2744 48.2086 38.2744ZM48.8833 32.3528H52.9536V35.9306H48.8833V32.3528Z" fill="#323232"/>
<path d="M31.7914 40.7492H26.3672C25.4494 40.7492 24.7026 41.498 24.7026 42.4184V47.3455C24.7026 48.2633 25.4494 49.01 26.3672 49.01H31.7914C32.7117 49.01 33.4604 48.2633 33.4604 47.3455V42.4184C33.4604 41.498 32.7117 40.7492 31.7914 40.7492ZM31.1167 46.6662H27.0464V43.093H31.1167V46.6662Z" fill="#323232"/>
<path d="M42.7119 40.7492H37.2877C36.3674 40.7492 35.6187 41.498 35.6187 42.4184V47.3455C35.6187 48.2633 36.3674 49.01 37.2877 49.01H42.7119C43.6297 49.01 44.3765 48.2633 44.3765 47.3455V42.4184C44.3766 41.498 43.6297 40.7492 42.7119 40.7492ZM42.0329 46.6662H37.9626V43.093H42.0329V46.6662Z" fill="#323232"/>
<path d="M48.2086 49.01H53.6283C54.5486 49.01 55.2974 48.2633 55.2974 47.3455V42.4184C55.2974 41.498 54.5486 40.7492 53.6283 40.7492H48.2086C47.2883 40.7492 46.5396 41.498 46.5396 42.4184V47.3455C46.5396 48.2633 47.2883 49.01 48.2086 49.01ZM48.8833 43.093H52.9536V46.6662H48.8833V43.093Z" fill="#323232"/>
<path d="M77.9467 28.2688H63.3975V24.9305H63.8258C65.0377 24.9305 66.0238 23.9444 66.0238 22.7325V17.4619C66.0238 16.2498 65.0377 15.2639 63.8258 15.2639H54.3753V2.21953C54.3753 1.14219 53.4967 0.265625 52.4169 0.265625H27.5786C26.5013 0.265625 25.6248 1.14219 25.6248 2.21953V15.2639H16.1744C14.96 15.2639 13.9719 16.25 13.9719 17.4619V22.7325C13.9719 23.9444 14.9598 24.9305 16.1744 24.9305H16.6027V28.2688H2.05328C0.921094 28.2688 0 29.1919 0 30.3266V78.5625C0 79.2097 0.524687 79.7344 1.17188 79.7344H78.8281C79.4753 79.7344 80 79.2097 80 78.5625V30.3266C80 29.1919 79.0789 28.2688 77.9467 28.2688ZM54.3752 17.6077H63.6798V22.5867H54.3752V17.6077ZM16.3155 22.5867V17.6077H25.6247V22.5867H16.3155ZM2.34375 30.6125H16.6025V35.1486H2.34375V30.6125ZM38.8281 59.9119V77.3906H28.8544V59.4564L38.9197 59.4567C38.8608 59.5967 38.8281 59.7505 38.8281 59.9119ZM51.1411 77.3906H41.1719V59.9119C41.1719 59.7505 41.1392 59.5967 41.0802 59.4569L51.1409 59.4572V77.3906H51.1411ZM61.0537 77.3906H53.4848V59.3784C53.4848 58.1291 52.4441 57.1127 51.1648 57.1127H28.8352C27.5534 57.1127 26.5106 58.1291 26.5106 59.3784V77.3906H18.9462V59.3378C18.9462 58.6906 18.4216 58.1659 17.7744 58.1659C17.1272 58.1659 16.6025 58.6906 16.6025 59.3378V77.3906H2.34375V37.4923H16.6025V53.8139C16.6025 54.4611 17.1272 54.9858 17.7744 54.9858C18.4216 54.9858 18.9462 54.4611 18.9462 53.8139V24.9305H37.9433C38.5905 24.9305 39.1152 24.4058 39.1152 23.7586C39.1152 23.1114 38.5905 22.5867 37.9433 22.5867H27.9684V2.60938H52.0314V22.5867H43.4625C42.8153 22.5867 42.2906 23.1114 42.2906 23.7586C42.2906 24.4058 42.8153 24.9305 43.4625 24.9305H61.0537V77.3906ZM77.6562 77.3906H63.3975V37.4923H77.6562V77.3906ZM77.6562 35.1486H63.3975V30.6125H77.6562V35.1486Z" fill="#323232"/>
<path d="M43.7394 17.5614V16.3375H44.9633C46.4294 16.3375 47.6224 15.1447 47.6224 13.6784V11.5133C47.6224 10.047 46.4296 8.85421 44.9633 8.85421H43.7394V7.63483C43.7394 6.16858 42.5486 4.97577 41.0849 4.97577H38.9152C37.4491 4.97577 36.2561 6.16858 36.2561 7.63483V8.85421H35.0367C33.5707 8.85421 32.3777 10.047 32.3777 11.5133V13.6784C32.3777 15.1447 33.5705 16.3375 35.0367 16.3375H36.2561V17.5614C36.2561 19.0276 37.4489 20.2205 38.9152 20.2205H41.0849C42.5486 20.2205 43.7394 19.0275 43.7394 17.5614ZM38.6 17.5614V15.1656C38.6 14.5184 38.0753 13.9937 37.4282 13.9937H35.0369C34.866 13.9937 34.7216 13.8494 34.7216 13.6784V11.5133C34.7216 11.3423 34.866 11.198 35.0369 11.198H37.4282C38.0753 11.198 38.6 10.6733 38.6 10.0261V7.63483C38.6 7.46389 38.7444 7.31952 38.9153 7.31952H41.085C41.2535 7.31952 41.3958 7.46389 41.3958 7.63483V10.0261C41.3958 10.6733 41.9205 11.198 42.5677 11.198H44.9635C45.1344 11.198 45.2788 11.3423 45.2788 11.5133V13.6784C45.2788 13.8494 45.1344 13.9937 44.9635 13.9937H42.5677C41.9205 13.9937 41.3958 14.5184 41.3958 15.1656V17.5614C41.3958 17.7323 41.2535 17.8767 41.085 17.8767H38.9153C38.7442 17.8767 38.6 17.7322 38.6 17.5614Z" fill="#323232"/>
</g>
<defs>
<clipPath id="clip0_167_154">
<rect width="80" height="80" fill="white"/>
</clipPath>
</defs>
</svg>
