<svg width="81" height="80" viewBox="0 0 81 80" fill="none" xmlns="http://www.w3.org/2000/svg">
<g clip-path="url(#clip0_167_175)">
<path d="M19.8549 33.5484V30.9677C13.4512 30.9677 8.24202 25.7586 8.24202 19.3548H5.66138C5.66138 27.1806 12.0292 33.5484 19.8549 33.5484Z" fill="#323232"/>
<path d="M19.8548 28.3871C24.834 28.3871 28.887 24.334 28.887 19.3548C28.887 14.3756 24.834 10.3226 19.8548 10.3226C14.8756 10.3226 10.8225 14.3756 10.8225 19.3548C10.8225 24.334 14.8756 28.3871 19.8548 28.3871ZM19.8548 12.9032C23.412 12.9032 26.3064 15.7976 26.3064 19.3548C26.3064 22.912 23.412 25.8064 19.8548 25.8064C16.2976 25.8064 13.4032 22.912 13.4032 19.3548C13.4032 15.7976 16.2976 12.9032 19.8548 12.9032Z" fill="#323232"/>
<path d="M19.8549 23.2258C21.9888 23.2258 23.7258 21.4888 23.7258 19.3548C23.7258 17.2209 21.9888 15.4839 19.8549 15.4839C17.7209 15.4839 15.9839 17.2209 15.9839 19.3548C15.9839 21.4888 17.7209 23.2258 19.8549 23.2258ZM19.8549 18.0645C20.5668 18.0645 21.1452 18.6429 21.1452 19.3548C21.1452 20.0668 20.5668 20.6451 19.8549 20.6451C19.1429 20.6451 18.5645 20.0668 18.5645 19.3548C18.5645 18.6429 19.1429 18.0645 19.8549 18.0645Z" fill="#323232"/>
<path d="M80.5 61.5612V51.9871L77.0083 50.7693C76.6164 49.4815 76.1036 48.2403 75.4754 47.0634L77.0833 43.7368L75.8371 42.4905C75.2599 41.7326 74.313 40.7327 73.5966 40.0088C72.7051 39.1072 71.6769 38.1288 70.9788 37.5176L62.3939 30.0101L63.131 27.7999L66.1181 29.2944L71.0834 24.329L69.589 21.342L72.7581 20.2854V13.2642L69.589 12.2089L71.0834 9.2219L66.1181 4.25655L63.131 5.75101L62.0757 2.58065H55.0546L53.9992 5.74975L51.0122 4.25529L46.0469 9.22064L47.5413 12.2077L44.371 13.263V14.2477L33.7504 4.96031C30.0949 1.76159 25.4074 0 20.5491 0V0.0346523C20.3167 0.0270918 20.0898 0 19.8548 0C9.18259 0 0.5 8.68259 0.5 19.3548C0.5 19.5898 0.527092 19.8167 0.534652 20.0491H0.5C0.5 24.9074 2.26159 29.5936 5.46031 33.2491L14.754 43.871H13.763L12.7077 47.0401L9.72064 45.5456L4.75529 50.511L6.24975 53.498L3.08065 54.5533V61.5745L6.24975 62.6298L4.75529 65.6168L9.72064 70.5822L12.7077 69.0877L13.763 72.2581H20.7841L21.8395 69.089L24.8265 70.5834L29.7918 65.6181L28.2974 62.631L30.5221 61.8901L38.012 70.4505C38.5992 71.1202 39.4793 72.0527 40.3078 72.8875C41.0922 73.6763 42.1721 74.7159 42.9824 75.3339L44.233 76.5845L47.5596 74.9767C48.7359 75.6036 49.9777 76.1177 51.2649 76.5096L52.4871 80H62.0612L63.2791 76.5083C64.5669 76.1164 65.8081 75.6036 66.985 74.9754L70.3116 76.5833L77.0833 69.8116L75.4754 66.485C76.1023 65.3081 76.6164 64.0669 77.0083 62.7791L80.5 61.5612ZM39.073 47.0634C38.4461 48.2403 37.932 49.4815 37.5401 50.7693L34.0484 51.9871V61.5612L37.5401 62.7791C37.932 64.0669 38.4448 65.3081 39.073 66.485L38.6817 67.294L12.3372 37.1894C14.6494 38.1678 17.1904 38.7097 19.8548 38.7097C30.5271 38.7097 39.2097 30.0271 39.2097 19.3548C39.2097 16.6879 38.6678 14.1457 37.6881 11.8322L67.811 38.1741L66.9863 38.573C65.81 37.9461 64.5682 37.432 63.2804 37.0401L62.0612 33.5484H52.4871L51.2693 37.0401C49.9815 37.432 48.7403 37.9448 47.5634 38.573L44.2368 36.9651L37.4651 43.7368L39.073 47.0634ZM46.9516 15.1241L49.9141 14.1368L50.1308 13.5654C50.1944 13.3984 50.26 13.2371 50.3299 13.0771L50.58 12.5189L49.1851 9.72908L51.5194 7.39478L54.3092 8.78969L54.8674 8.53957C55.0275 8.46837 55.1888 8.40411 55.3557 8.34047L55.9272 8.12374L56.9144 5.16129H60.2159L61.2031 8.12374L61.7746 8.34047C61.9415 8.40411 62.1028 8.46963 62.2629 8.53957L62.8211 8.78969L65.6109 7.39478L67.9452 9.72908L66.5503 12.5189L66.8004 13.0771C66.8716 13.2371 66.9359 13.3984 66.9995 13.5654L67.2162 14.1368L70.1774 15.1241V18.4255L67.215 19.4128L66.9982 19.9842C66.9346 20.1512 66.8691 20.3125 66.7991 20.4725L66.549 21.0307L67.9439 23.8206L65.6096 26.1549L62.8198 24.76L62.2616 25.0101C62.1016 25.0813 61.9403 25.1455 61.7733 25.2092L61.2019 25.4259L60.2883 28.1691L46.9516 16.5045V15.1241ZM19.8548 2.58065C29.1038 2.58065 36.629 10.1058 36.629 19.3548C36.629 28.6038 29.1038 36.129 19.8548 36.129C10.6058 36.129 3.08065 28.6038 3.08065 19.3548C3.08065 10.1058 10.6058 2.58065 19.8548 2.58065ZM25.9246 60.7019L25.7079 61.2733C25.6443 61.4403 25.5788 61.6016 25.5088 61.7616L25.2587 62.3198L26.6536 65.1096L24.3193 67.4439L21.5295 66.049L20.9713 66.2991C20.8112 66.3703 20.65 66.4346 20.483 66.4982L19.9115 66.715L18.9243 69.6774H15.6229L14.6356 66.715L14.0641 66.4982C13.8972 66.4346 13.7359 66.3691 13.5759 66.2991L13.0176 66.049L10.2291 67.4439L7.89478 65.1096L9.28969 62.3198L9.03957 61.7616C8.96837 61.6016 8.90411 61.4403 8.84047 61.2733L8.62374 60.7019L5.66129 59.7146V56.4132L8.62374 55.4259L8.84047 54.8545C8.90411 54.6875 8.96963 54.5262 9.03957 54.3662L9.28969 53.808L7.89478 51.0194L10.2291 48.6851L13.0189 50.08L13.5771 49.8299C13.7371 49.7587 13.8984 49.6944 14.0654 49.6308L14.6368 49.4141L15.6241 46.4516H17.0134L28.6804 59.7845L25.9246 60.7019ZM74.8819 60.7882L74.7049 61.4478C74.2947 62.9807 73.6899 64.4437 72.9068 65.7976L72.5634 66.3899L73.9608 69.2824L69.7824 73.4608L66.8899 72.0634L66.2976 72.4068C64.9437 73.1886 63.4795 73.7935 61.9478 74.2049L61.2882 74.3819L60.2291 77.4193H54.3193L53.2602 74.3819L52.6006 74.2049C51.0677 73.7947 49.6047 73.1899 48.2508 72.4068L47.6585 72.0634L44.766 73.4608L40.5876 69.2824L41.985 66.3899L41.6416 65.7976C40.8598 64.4437 40.2549 62.9795 39.8435 61.4478L39.6665 60.7882L36.629 59.7291V53.8193L39.6665 52.7602L39.8435 52.1006C40.2537 50.5677 40.8585 49.1047 41.6416 47.7508L41.985 47.1585L40.5876 44.266L44.766 40.0876L47.6585 41.485L48.2508 41.1416C49.6047 40.3598 51.0689 39.7549 52.6006 39.3435L53.2602 39.1665L54.3193 36.129H60.2291L61.2882 39.1665L61.9478 39.3435C63.4807 39.7537 64.9437 40.3585 66.2976 41.1416L66.8899 41.485L69.7824 40.0876L73.9608 44.266L72.5634 47.1585L72.9068 47.7508C73.6886 49.1047 74.2935 50.5689 74.7049 52.1006L74.8819 52.7602L77.9193 53.8193V59.7291L74.8819 60.7882Z" fill="#323232"/>
<path d="M57.2741 43.871C50.159 43.871 44.3708 49.6592 44.3708 56.7742C44.3708 63.8892 50.159 69.6774 57.2741 69.6774C64.3891 69.6774 70.1773 63.8892 70.1773 56.7742C70.1773 49.6592 64.3891 43.871 57.2741 43.871ZM57.2741 67.0968C51.5823 67.0968 46.9515 62.466 46.9515 56.7742C46.9515 51.0824 51.5823 46.4516 57.2741 46.4516C62.9659 46.4516 67.5967 51.0824 67.5967 56.7742C67.5967 62.466 62.9659 67.0968 57.2741 67.0968Z" fill="#323232"/>
<path d="M57.2742 49.0323C53.0044 49.0323 49.5322 52.5044 49.5322 56.7742C49.5322 61.044 53.0044 64.5161 57.2742 64.5161C61.5439 64.5161 65.0161 61.044 65.0161 56.7742C65.0161 52.5044 61.5439 49.0323 57.2742 49.0323ZM57.2742 61.9355C54.4276 61.9355 52.1129 59.6207 52.1129 56.7742C52.1129 53.9277 54.4276 51.6129 57.2742 51.6129C60.1207 51.6129 62.4355 53.9277 62.4355 56.7742C62.4355 59.6207 60.1207 61.9355 57.2742 61.9355Z" fill="#323232"/>
<path d="M65.016 16.7742C65.016 13.217 62.1216 10.3226 58.5644 10.3226C55.0072 10.3226 52.1128 13.217 52.1128 16.7742C52.1128 20.3314 55.0072 23.2258 58.5644 23.2258C62.1216 23.2258 65.016 20.3314 65.016 16.7742ZM54.6934 16.7742C54.6934 14.6402 56.4305 12.9032 58.5644 12.9032C60.6984 12.9032 62.4354 14.6402 62.4354 16.7742C62.4354 18.9081 60.6984 20.6452 58.5644 20.6452C56.4305 20.6452 54.6934 18.9081 54.6934 16.7742Z" fill="#323232"/>
<path d="M10.8225 58.0645C10.8225 61.6217 13.7169 64.5161 17.2741 64.5161C20.8313 64.5161 23.7257 61.6217 23.7257 58.0645C23.7257 54.5073 20.8313 51.6129 17.2741 51.6129C13.7169 51.6129 10.8225 54.5073 10.8225 58.0645ZM21.1451 58.0645C21.1451 60.1985 19.4081 61.9355 17.2741 61.9355C15.1402 61.9355 13.4032 60.1985 13.4032 58.0645C13.4032 55.9306 15.1402 54.1936 17.2741 54.1936C19.4081 54.1936 21.1451 55.9306 21.1451 58.0645Z" fill="#323232"/>
</g>
<defs>
<clipPath id="clip0_167_175">
<rect width="80" height="80" fill="white" transform="translate(0.5)"/>
</clipPath>
</defs>
</svg>
