<svg width="81" height="80" viewBox="0 0 81 80" fill="none" xmlns="http://www.w3.org/2000/svg">
<g clip-path="url(#clip0_167_115)">
<path d="M46.75 80H34.25C33.9185 80 33.6005 79.8683 33.3661 79.6339C33.1317 79.3995 33 79.0815 33 78.75V72.9075C29.2891 72.0701 25.7489 70.6039 22.5325 68.5725L18.4075 72.7038C18.1687 72.9296 17.8524 73.0554 17.5238 73.0554C17.1951 73.0554 16.8788 72.9296 16.64 72.7038L7.79625 63.865C7.56191 63.6306 7.43027 63.3127 7.43027 62.9812C7.43027 62.6498 7.56191 62.3319 7.79625 62.0975L11.9275 57.9725C9.89557 54.7546 8.4294 51.2126 7.5925 47.5H1.75C1.41848 47.5 1.10054 47.3683 0.866117 47.1339C0.631696 46.8995 0.5 46.5815 0.5 46.25V33.75C0.5 33.4185 0.631696 33.1005 0.866117 32.8661C1.10054 32.6317 1.41848 32.5 1.75 32.5H7.5925C8.42994 28.7891 9.89609 25.2489 11.9275 22.0325L7.8025 17.9075C7.56816 17.6731 7.43652 17.3552 7.43652 17.0238C7.43652 16.6923 7.56816 16.3744 7.8025 16.14L16.6413 7.30125C16.8756 7.06681 17.1935 6.93507 17.525 6.935C17.8565 6.93507 18.1744 7.06681 18.4087 7.30125L22.5338 11.4262C25.7501 9.39583 29.2898 7.93013 33 7.0925V1.25C33 0.918479 33.1317 0.600537 33.3661 0.366117C33.6005 0.131696 33.9185 0 34.25 0L46.75 0C47.0815 0 47.3995 0.131696 47.6339 0.366117C47.8683 0.600537 48 0.918479 48 1.25V7.0925C51.7106 7.93 55.2508 9.39569 58.4675 11.4262L62.5925 7.30125C62.8313 7.07541 63.1476 6.94957 63.4762 6.94957C63.8049 6.94957 64.1212 7.07541 64.36 7.30125L73.1988 16.14C73.4331 16.3744 73.5647 16.6923 73.5647 17.0238C73.5647 17.3552 73.4331 17.6731 73.1988 17.9075L69.0738 22.0325C70.0713 23.6156 70.9347 25.2793 71.655 27.0062L69.3475 27.9688C68.558 26.0756 67.5832 24.2651 66.4375 22.5638C66.2754 22.3232 66.2019 22.0338 66.2297 21.7451C66.2576 21.4564 66.3849 21.1864 66.59 20.9813L70.5537 17.0187L63.4812 9.9475L59.5187 13.9112C59.3136 14.1163 59.0436 14.2437 58.7549 14.2715C58.4662 14.2993 58.1768 14.2259 57.9363 14.0638C54.4856 11.7332 50.5995 10.1243 46.5112 9.33375C46.2264 9.27833 45.9697 9.12553 45.7852 8.90157C45.6007 8.67761 45.4999 8.39643 45.5 8.10625V2.5H35.5V8.10625C35.5001 8.39643 35.3993 8.67761 35.2148 8.90157C35.0303 9.12553 34.7736 9.27833 34.4888 9.33375C30.4005 10.1243 26.5144 11.7332 23.0638 14.0638C22.8232 14.2259 22.5338 14.2993 22.2451 14.2715C21.9564 14.2437 21.6864 14.1163 21.4813 13.9112L17.5187 9.9475L10.4475 17.0187L14.4112 20.9813C14.6163 21.1864 14.7437 21.4564 14.7715 21.7451C14.7993 22.0338 14.7259 22.3232 14.5638 22.5638C12.234 26.0148 10.6252 29.9008 9.83375 33.9888C9.77833 34.2736 9.62553 34.5303 9.40157 34.7148C9.17761 34.8993 8.89643 35.0001 8.60625 35H3V45H8.60625C8.89643 44.9999 9.17761 45.1007 9.40157 45.2852C9.62553 45.4697 9.77833 45.7264 9.83375 46.0112C10.6252 50.0992 12.234 53.9852 14.5638 57.4363C14.7259 57.6768 14.7993 57.9662 14.7715 58.2549C14.7437 58.5436 14.6163 58.8136 14.4112 59.0187L10.4475 62.9812L17.5187 70.0525L21.4813 66.0887C21.6864 65.8837 21.9564 65.7563 22.2451 65.7285C22.5338 65.7007 22.8232 65.7741 23.0638 65.9362C26.5148 68.266 30.4008 69.8748 34.4888 70.6663C34.7736 70.7217 35.0303 70.8745 35.2148 71.0984C35.3993 71.3224 35.5001 71.6036 35.5 71.8938V77.5H45.5V71.8938C45.4999 71.6036 45.6007 71.3224 45.7852 71.0984C45.9697 70.8745 46.2264 70.7217 46.5112 70.6663C48.1467 70.3475 49.7539 69.8981 51.3175 69.3225L52.1825 71.6687C50.8164 72.1712 49.4194 72.585 48 72.9075V78.75C48 79.0815 47.8683 79.3995 47.6339 79.6339C47.3995 79.8683 47.0815 80 46.75 80Z" fill="#323232"/>
<path d="M40.4999 63.75C36.3932 63.7502 32.3565 62.6856 28.7841 60.66C25.2117 58.6344 22.2256 55.7171 20.1172 52.1928C18.0089 48.6686 16.8505 44.6579 16.755 40.5523C16.6595 36.4467 17.6302 32.3864 19.5724 28.768C21.5146 25.1495 24.3618 22.0965 27.8362 19.907C31.3106 17.7175 35.2933 16.4663 39.3956 16.2756C43.498 16.0849 47.5796 16.9612 51.2421 18.8189C54.9047 20.6767 58.0229 23.4523 60.2924 26.875L58.2099 28.25C56.0086 24.9369 52.9213 22.3085 49.2994 20.6641C45.6775 19.0196 41.6667 18.4252 37.7236 18.9484C33.7804 19.4717 30.0635 21.0916 26.9959 23.6238C23.9282 26.156 21.6333 29.4986 20.3723 33.2711C19.1112 37.0437 18.9348 41.0945 19.8632 44.9623C20.7915 48.8302 22.7872 52.3597 25.6231 55.1489C28.4589 57.9382 32.021 59.8751 35.9038 60.7391C39.7865 61.6032 43.8338 61.3596 47.5849 60.0363L48.4174 62.395C45.8745 63.2935 43.1969 63.7518 40.4999 63.75Z" fill="#323232"/>
<path d="M14.25 40H11.75C11.7583 32.3776 14.7899 25.0697 20.1798 19.6798C25.5697 14.2899 32.8776 11.2583 40.5 11.25V13.75C33.5405 13.7579 26.8683 16.5261 21.9472 21.4472C17.0261 26.3683 14.2579 33.0405 14.25 40Z" fill="#323232"/>
<path d="M55.5 80C54.1739 80 52.9021 79.4732 51.9645 78.5355C51.0268 77.5979 50.5 76.3261 50.5 75V61.25C50.5 60.9185 50.6317 60.6005 50.8661 60.3661C51.1005 60.1317 51.4185 60 51.75 60H59.25C59.5815 60 59.8995 60.1317 60.1339 60.3661C60.3683 60.6005 60.5 60.9185 60.5 61.25V75C60.5 76.3261 59.9732 77.5979 59.0355 78.5355C58.0979 79.4732 56.8261 80 55.5 80ZM53 62.5V75C53 75.663 53.2634 76.2989 53.7322 76.7678C54.2011 77.2366 54.837 77.5 55.5 77.5C56.163 77.5 56.7989 77.2366 57.2678 76.7678C57.7366 76.2989 58 75.663 58 75V62.5H53Z" fill="#323232"/>
<path d="M57.6338 62.1338L55.8662 60.3662L58 58.2325V57.5H53V58.2325L55.1338 60.3662L53.3662 62.1338L50.8662 59.6338C50.6318 59.3994 50.5001 59.0815 50.5 58.75V56.25C50.5 55.9185 50.6317 55.6005 50.8661 55.3661C51.1005 55.1317 51.4185 55 51.75 55H59.25C59.5815 55 59.8995 55.1317 60.1339 55.3661C60.3683 55.6005 60.5 55.9185 60.5 56.25V58.75C60.4999 59.0815 60.3682 59.3994 60.1338 59.6338L57.6338 62.1338Z" fill="#323232"/>
<path d="M59.25 73.75H51.75V76.25H59.25V73.75Z" fill="#323232"/>
<path d="M55.5 42.5C54.5054 42.5 53.5516 42.1049 52.8484 41.4016C52.1451 40.6984 51.75 39.7446 51.75 38.75V31.25C51.75 30.9185 51.8817 30.6005 52.1161 30.3661C52.3505 30.1317 52.6685 30 53 30H58C58.3315 30 58.6495 30.1317 58.8839 30.3661C59.1183 30.6005 59.25 30.9185 59.25 31.25V38.75C59.25 39.7446 58.8549 40.6984 58.1516 41.4016C57.4484 42.1049 56.4946 42.5 55.5 42.5ZM54.25 32.5V38.75C54.25 39.0815 54.3817 39.3995 54.6161 39.6339C54.8505 39.8683 55.1685 40 55.5 40C55.8315 40 56.1495 39.8683 56.3839 39.6339C56.6183 39.3995 56.75 39.0815 56.75 38.75V32.5H54.25Z" fill="#323232"/>
<path d="M56.75 41.25H54.25V56.25H56.75V41.25Z" fill="#323232"/>
<path d="M70.5 80C69.1739 80 67.9021 79.4732 66.9645 78.5355C66.0268 77.5979 65.5 76.3261 65.5 75V50.5175L60.8662 45.8838C60.6318 45.6494 60.5001 45.3315 60.5 45V35C60.5001 34.6685 60.6318 34.3506 60.8662 34.1162L64.6162 30.3662C64.8506 30.1318 65.1685 30.0001 65.5 30H68C68.3315 30 68.6495 30.1317 68.8839 30.3661C69.1183 30.6005 69.25 30.9185 69.25 31.25V40H71.75V31.25C71.75 30.9185 71.8817 30.6005 72.1161 30.3661C72.3505 30.1317 72.6685 30 73 30H75.5C75.8315 30.0001 76.1494 30.1318 76.3838 30.3662L80.1338 34.1162C80.3682 34.3506 80.4999 34.6685 80.5 35V45C80.4999 45.3315 80.3682 45.6494 80.1338 45.8838L75.5 50.5175V75C75.5 76.3261 74.9732 77.5979 74.0355 78.5355C73.0979 79.4732 71.8261 80 70.5 80ZM63 44.4825L67.6338 49.1162C67.8682 49.3506 67.9999 49.6685 68 50V75C68 75.663 68.2634 76.2989 68.7322 76.7678C69.2011 77.2366 69.837 77.5 70.5 77.5C71.163 77.5 71.7989 77.2366 72.2678 76.7678C72.7366 76.2989 73 75.663 73 75V50C73.0001 49.6685 73.1318 49.3506 73.3662 49.1162L78 44.4825V35.5175L74.9825 32.5H74.25V41.25C74.25 41.5815 74.1183 41.8995 73.8839 42.1339C73.6495 42.3683 73.3315 42.5 73 42.5H68C67.6685 42.5 67.3505 42.3683 67.1161 42.1339C66.8817 41.8995 66.75 41.5815 66.75 41.25V32.5H66.0175L63 35.5175V44.4825Z" fill="#323232"/>
</g>
<defs>
<clipPath id="clip0_167_115">
<rect width="80" height="80" fill="white" transform="translate(0.5)"/>
</clipPath>
</defs>
</svg>
