<svg width="80" height="80" viewBox="0 0 80 80" fill="none" xmlns="http://www.w3.org/2000/svg">
<g clip-path="url(#clip0_167_126)">
<path d="M76.8689 3.73172H3.13109C1.40469 3.73172 0 5.13625 0 6.86281V18.2206C0 20.7283 1.31594 22.933 3.29234 24.1847V39.3881C3.29234 40.2528 3.99328 40.9538 4.85797 40.9538C5.72266 40.9538 6.42359 40.2528 6.42359 39.3881V25.2469C6.63219 25.2655 6.84281 25.2767 7.05625 25.2767C9.2725 25.2767 11.2523 24.2488 12.5469 22.6456C13.8414 24.2488 15.8212 25.2767 18.0375 25.2767C20.2537 25.2767 22.2336 24.2488 23.5281 22.6456C24.8227 24.2488 26.8025 25.2767 29.0187 25.2767C30.4705 25.2767 31.8208 24.8356 32.9437 24.0811V73.1344L6.42344 73.1327V53.4972C6.42344 52.6325 5.7225 51.9316 4.85781 51.9316C3.99312 51.9316 3.29219 52.6325 3.29219 53.4972V73.1327C3.29219 74.8617 4.69875 76.2683 6.42781 76.2683H73.5941C75.3231 76.2683 76.7298 74.8617 76.7298 73.1327V24.1703C78.6938 22.9161 79.9998 20.7188 79.9998 18.2206V6.86281C80 5.13625 78.5955 3.73172 76.8689 3.73172ZM65.8877 18.2206C65.8877 20.3848 64.1269 22.1456 61.9627 22.1456C59.7983 22.1456 58.0375 20.3848 58.0375 18.2206V6.86281H65.8878V18.2206H65.8877ZM54.9062 18.2206C54.9062 20.3848 53.1455 22.1456 50.9813 22.1456C48.817 22.1456 47.0563 20.3848 47.0563 18.2206V6.86281H54.9062V18.2206ZM43.925 18.2206C43.925 20.3848 42.1642 22.1456 40 22.1456C37.8358 22.1456 36.075 20.3848 36.075 18.2206V6.86281H43.9252V18.2206H43.925ZM7.05609 22.1456C4.89188 22.1456 3.13109 20.3848 3.13109 18.2206V6.86281H10.9812V18.2206C10.9812 20.3848 9.22047 22.1456 7.05609 22.1456ZM18.0375 22.1456C15.8733 22.1456 14.1125 20.3848 14.1125 18.2206V6.86281H21.9627V18.2206C21.9625 20.3848 20.2017 22.1456 18.0375 22.1456ZM29.0187 22.1456C26.8544 22.1456 25.0936 20.3848 25.0936 18.2206V6.86281H32.9437V18.2206C32.9439 20.3848 31.183 22.1456 29.0187 22.1456ZM36.075 73.1347V63.7083H73.5953L73.5944 73.1372L36.075 73.1347ZM73.5955 60.5772H36.075V24.0811C37.198 24.8356 38.5484 25.2767 40 25.2767C42.2163 25.2767 44.1961 24.2488 45.4906 22.6456C46.7852 24.2488 48.765 25.2767 50.9813 25.2767C53.1975 25.2767 55.1773 24.2488 56.4719 22.6456C57.7664 24.2488 59.7463 25.2767 61.9627 25.2767C64.1789 25.2767 66.1587 24.2488 67.4533 22.6456C68.7478 24.2488 70.7277 25.2767 72.9439 25.2767C73.1648 25.2767 73.3831 25.2652 73.5989 25.2452L73.5955 60.5772ZM76.8689 18.2206C76.8689 20.3848 75.1081 22.1456 72.9439 22.1456C70.7797 22.1456 69.0189 20.3848 69.0189 18.2206V6.86281H76.8691V18.2206H76.8689Z" fill="#323232"/>
<path d="M27.2283 48.0514C28.093 48.0514 28.7939 47.3505 28.7939 46.4858C28.7939 45.6211 28.093 44.9202 27.2283 44.9202H22.8508C21.9861 44.9202 21.2852 45.6211 21.2852 46.4858C21.2852 47.3505 21.9861 48.0514 22.8508 48.0514H27.2283Z" fill="#323232"/>
<path d="M65.4379 42.2239C65.4093 41.9261 65.2984 41.5788 65.0229 41.2845L57.8073 33.5609C57.1913 32.9014 56.3202 32.5231 55.4176 32.5231C55.4174 32.5231 55.4176 32.5231 55.4174 32.5231C54.5149 32.5231 53.6438 32.9014 53.0274 33.5609L45.812 41.2847C45.5827 41.5414 45.3891 41.9036 45.3904 42.3534V51.2752C45.3904 53.0016 46.7949 54.4063 48.5215 54.4063H62.313C64.0396 54.4063 65.4441 53.0016 65.4441 51.2752V42.3534C65.4424 42.3039 65.4427 42.3186 65.4379 42.2239ZM55.3155 35.6984C55.3259 35.6875 55.357 35.6542 55.4176 35.6542C55.478 35.6542 55.509 35.6874 55.5193 35.6984L60.2738 40.7878H50.5612L55.3155 35.6984ZM62.3132 51.275H48.5216V43.9188H62.3135L62.3152 51.2749C62.3152 51.2749 62.3146 51.275 62.3132 51.275Z" fill="#323232"/>
<path d="M4.85786 48.0514C5.72253 48.0514 6.42349 47.3505 6.42349 46.4858C6.42349 45.6211 5.72253 44.9202 4.85786 44.9202C3.99319 44.9202 3.29224 45.6211 3.29224 46.4858C3.29224 47.3505 3.99319 48.0514 4.85786 48.0514Z" fill="#323232"/>
</g>
<defs>
<clipPath id="clip0_167_126">
<rect width="80" height="80" fill="white"/>
</clipPath>
</defs>
</svg>
