<svg width="81" height="80" viewBox="0 0 81 80" fill="none" xmlns="http://www.w3.org/2000/svg">
<path d="M34.2532 54.8C33.6507 55.1362 32.8889 54.9056 32.552 54.3044C32.2157 53.7025 32.4457 52.9412 33.0482 52.6056L48.9945 43.7931C49.597 43.475 50.3589 43.6869 50.6957 44.2887C50.802 44.4837 50.8376 44.6956 50.8376 44.8906V78.7575C50.8376 79.4475 50.2882 79.9962 49.5976 79.9962C48.907 79.9962 48.3395 79.4475 48.3395 78.7575V47.0144L34.2532 54.8Z" fill="#323232"/>
<path d="M76.3333 43.3869C77.024 43.3869 77.5733 43.9356 77.5733 44.6256C77.5733 45.3156 77.024 45.8819 76.3333 45.8819H58.474C57.7833 45.8819 57.2158 45.3156 57.2158 44.6256C57.2158 43.9356 57.7827 43.3869 58.474 43.3869H76.3333ZM78.6715 70.1937C79.3621 70.1937 79.9296 70.7425 79.9296 71.4319C79.9296 72.1219 79.3627 72.6887 78.6715 72.6887H56.1171C55.4265 72.6887 54.8765 72.1225 54.8765 71.4319C54.8765 70.7419 55.4265 70.1937 56.1171 70.1937H78.6715ZM77.1483 50.8719C77.839 50.8719 78.4065 51.4206 78.4065 52.11C78.4065 52.8 77.8396 53.3669 77.1483 53.3669H57.6408C56.9502 53.3669 56.3827 52.8006 56.3827 52.11C56.3827 51.42 56.9496 50.8719 57.6408 50.8719H77.1483Z" fill="#323232"/>
<path d="M8.93503 63.8944C8.93503 64.5844 8.38565 65.1325 7.6944 65.1325C7.00315 65.1325 6.43628 64.5844 6.43628 63.8944V59.7363C6.43628 59.0463 7.00315 58.48 7.6944 58.48H11.8582C12.5488 58.48 13.1163 59.0463 13.1163 59.7363C13.1163 60.4263 12.5494 60.9744 11.8582 60.9744H8.93503V63.8944ZM41.0569 74.7238C41.0569 75.4138 40.49 75.98 39.7988 75.98C39.1075 75.98 38.5407 75.4138 38.5407 74.7238V70.5656C38.5407 69.8756 39.1075 69.3094 39.7988 69.3094H43.9625C44.6532 69.3094 45.2207 69.8756 45.2207 70.5656C45.2207 71.2556 44.6538 71.8044 43.9625 71.8044H41.0569V74.7238ZM24.8988 74.7238C24.8988 75.4138 24.3319 75.98 23.6407 75.98C22.9494 75.98 22.3825 75.4138 22.3825 74.7238V70.5656C22.3825 69.8756 22.9494 69.3094 23.6407 69.3094H27.8038C28.495 69.3094 29.0619 69.8756 29.0619 70.5656C29.0619 71.2556 28.495 71.8044 27.8038 71.8044H24.8988V74.7238ZM8.93503 74.7238C8.93503 75.4138 8.38565 75.98 7.6944 75.98C7.00315 75.98 6.43628 75.4138 6.43628 74.7238V70.5656C6.43628 69.8756 7.00315 69.3094 7.6944 69.3094H11.8582C12.5488 69.3094 13.1163 69.8756 13.1163 70.5656C13.1163 71.2556 12.5494 71.8044 11.8582 71.8044H8.93503V74.7238ZM41.0569 63.8944C41.0569 64.5844 40.49 65.1325 39.7988 65.1325C39.1075 65.1325 38.5407 64.5844 38.5407 63.8944V59.7363C38.5407 59.0463 39.1075 58.48 39.7988 58.48H43.9625C44.6532 58.48 45.2207 59.0463 45.2207 59.7363C45.2207 60.4263 44.6538 60.9744 43.9625 60.9744H41.0569V63.8944ZM24.8988 63.8944C24.8988 64.5844 24.3319 65.1325 23.6407 65.1325C22.9494 65.1325 22.3825 64.5844 22.3825 63.8944V59.7363C22.3825 59.0463 22.9494 58.48 23.6407 58.48H27.8038C28.495 58.48 29.0619 59.0463 29.0619 59.7363C29.0619 60.4263 28.495 60.9744 27.8038 60.9744H24.8988V63.8944Z" fill="#323232"/>
<path d="M18.3964 56.64C17.8289 57.0113 17.0495 56.8694 16.6595 56.2863C16.2876 55.72 16.4295 54.9413 17.0139 54.57L32.9595 43.865C33.527 43.4756 34.3064 43.635 34.6782 44.2006C34.8207 44.4131 34.8914 44.6606 34.8914 44.8906V78.7575C34.8914 79.4475 34.342 79.9963 33.6514 79.9963C32.9601 79.9963 32.3932 79.4475 32.3932 78.7575V47.2269L18.3964 56.64Z" fill="#323232"/>
<path d="M18.9458 78.7575C18.9458 79.4475 18.3965 79.9963 17.7052 79.9963C17.0146 79.9963 16.4471 79.4475 16.4471 78.7575V47.0144L2.99959 54.4456V78.7569C2.99959 79.4469 2.45021 79.9956 1.75959 79.9956C1.06896 79.9956 0.501465 79.4469 0.501465 78.7569V53.7025C0.501465 53.2606 0.731465 52.8356 1.15709 52.6056L17.0321 43.8469C17.2271 43.7225 17.4571 43.6519 17.7052 43.6519C18.3965 43.6519 18.9458 44.2 18.9458 44.89V78.7575Z" fill="#323232"/>
<path d="M50.1996 54.8C49.5971 55.1362 48.8352 54.9056 48.4989 54.3044C48.1621 53.7025 48.3921 52.9412 48.9946 52.6056L57.3046 48.0231C57.9071 47.6862 58.6689 47.9169 58.9871 48.5187C59.3239 49.1194 59.1114 49.8812 58.5089 50.1987L50.1996 54.8Z" fill="#323232"/>
<path d="M46.3901 40.8031C46.1426 41.4406 45.4157 41.7581 44.7776 41.5112C44.1395 41.2637 43.8026 40.5381 44.0513 39.9006C44.3876 39.0519 44.6539 38.1312 44.8132 37.1937C44.9726 36.2731 45.0432 35.3356 45.0082 34.38C44.902 30.505 43.2195 27.0544 40.5963 24.5775C37.9739 22.1175 34.4132 20.6494 30.5326 20.7731C26.6526 20.8794 23.1976 22.5606 20.717 25.1794C18.2545 27.78 16.7839 31.3369 16.9082 35.23C16.9257 35.9731 17.0145 36.7156 17.1557 37.4594C17.2976 38.2025 17.492 38.9281 17.7407 39.6181C17.9707 40.2725 17.652 40.9806 16.997 41.2112C16.3589 41.4587 15.6326 41.1219 15.402 40.4681C15.1014 39.6537 14.8707 38.8044 14.6932 37.92C14.5339 37.0881 14.4276 36.2037 14.4101 35.2831C14.2682 30.7356 16.0045 26.5425 18.9107 23.4631C21.8157 20.3844 25.8907 18.4206 30.462 18.2787C35.0332 18.1369 39.232 19.8712 42.3151 22.7731C45.3982 25.675 47.3651 29.7444 47.507 34.3094C47.5426 35.46 47.4538 36.5569 47.277 37.6181C47.0807 38.7156 46.7801 39.7775 46.3901 40.8031ZM11.4857 42.9087C11.752 43.5462 11.4501 44.2712 10.8126 44.5369C10.1745 44.8019 9.44823 44.5012 9.18323 43.8644C8.89948 43.1919 8.65135 42.4837 8.42135 41.7581C8.2976 41.3519 8.17323 40.9269 8.06698 40.4844L2.8401 39.9006C2.2201 39.83 1.70698 39.5825 1.33448 39.2106C0.891351 38.7862 0.643851 38.2375 0.625726 37.6356L0.572601 35.7069L0.501976 33.7606C0.484476 33.1762 0.696976 32.5925 1.12198 32.15C1.47573 31.7606 1.97198 31.4775 2.57448 31.3712L7.76573 30.4694C8.03135 29.0894 8.40385 27.7444 8.89948 26.4525C9.41323 25.125 10.0157 23.8512 10.742 22.6656L7.44635 18.5425C7.07448 18.065 6.89698 17.5162 6.87948 17.0031C6.86198 16.3837 7.0926 15.8175 7.49948 15.3931L8.82823 13.9775L10.157 12.5619C10.5645 12.1369 11.132 11.8894 11.7339 11.8544C12.2657 11.8369 12.8145 11.9781 13.3101 12.3325L17.6157 15.3756C19.9545 13.7831 22.5232 12.615 25.252 11.9425L25.837 6.72312C25.9076 6.10375 26.1739 5.59 26.5276 5.21875C26.9532 4.77625 27.5201 4.52874 28.1226 4.51124L30.0532 4.45812L32.002 4.40499C32.587 4.38749 33.1539 4.59937 33.6151 5.00687C34.0045 5.36062 34.2882 5.85562 34.3945 6.45749L35.2801 11.6419C36.6795 11.9069 38.027 12.2794 39.3195 12.7744C40.6482 13.2875 41.9245 13.8887 43.1107 14.6144L47.222 11.3412C47.7176 10.9519 48.2495 10.775 48.7807 10.7569C49.3832 10.7569 49.9676 10.9694 50.3926 11.3762L51.8107 12.7037L53.2101 14.0312C53.6526 14.4381 53.9007 15.0044 53.9363 15.6062C53.9538 16.1369 53.8126 16.6856 53.4401 17.1812L50.4101 21.4987C52.0051 23.8162 53.157 26.3825 53.8476 29.1075L54.8395 29.2312C55.5307 29.3019 56.027 29.9212 55.9564 30.5937C55.8676 31.2837 55.247 31.7794 54.5738 31.7081L52.6782 31.4962C52.1645 31.425 51.7213 31.0537 51.5976 30.5056C50.9951 27.5331 49.7195 24.7194 47.9126 22.2956C47.5757 21.8706 47.5226 21.2519 47.8595 20.7737L51.4026 15.7487L50.0914 14.5275L48.7801 13.2894L44.0139 17.0756C43.6063 17.4475 42.9857 17.5 42.5082 17.1819C41.2326 16.35 39.8676 15.66 38.4507 15.1112C37.0507 14.58 35.5807 14.1912 34.057 13.9612C33.5251 13.9081 33.0645 13.5012 32.9757 12.9344L31.9301 6.88312L30.1251 6.93624L28.3176 6.98937L27.6439 13.0937C27.5732 13.625 27.1832 14.0669 26.6514 14.1731C23.6751 14.7925 20.8582 16.0487 18.4307 17.8537C18.0051 18.2075 17.3851 18.2431 16.907 17.925L11.8751 14.3856L10.6351 15.695L9.4126 17.0044L13.2039 21.7644C13.5764 22.1712 13.6295 22.7906 13.3101 23.2687C12.4776 24.5425 11.7689 25.905 11.2376 27.3206C10.7057 28.7181 10.3164 30.1869 10.0857 31.6912C10.0326 32.24 9.62573 32.6819 9.05823 32.7887L2.99885 33.8325L3.05198 35.6375L3.1051 37.425L9.2176 38.115C9.74948 38.1681 10.192 38.5575 10.2982 39.1056C10.4401 39.76 10.5989 40.3975 10.7939 41.0337C10.9901 41.6706 11.2201 42.2894 11.4857 42.9087ZM54.3095 36.5744C54.9826 36.4506 55.6388 36.9106 55.7457 37.5831C55.8695 38.2731 55.4089 38.91 54.7351 39.0337L54.1501 39.1225C54.0795 39.5119 53.9907 39.8831 53.9026 40.255C53.7607 40.8919 53.5657 41.5469 53.3357 42.2362C53.1232 42.8737 52.4138 43.2275 51.7595 43.015C51.1213 42.8025 50.767 42.095 50.9795 41.4581C51.157 40.9094 51.3163 40.3081 51.4757 39.6706C51.6176 39.0869 51.7232 38.5031 51.8126 37.9194C51.8832 37.3706 52.2907 36.9106 52.8401 36.8225L54.3095 36.5744Z" fill="#323232"/>
<path d="M26.2982 35.7425C25.7132 36.0963 24.9338 35.9194 24.5794 35.3356C24.2075 34.7519 24.3844 33.9913 24.9694 33.6194C25.5188 33.2831 26.1026 32.9825 26.705 32.7344C27.2901 32.5044 27.91 32.31 28.5482 32.1681C30.0007 31.8494 31.4719 31.8319 32.8538 32.0794C34.2888 32.3269 35.6707 32.8581 36.8932 33.6363C37.4782 34.0081 37.6551 34.7688 37.2826 35.3525C36.9288 35.9369 36.1494 36.1138 35.5644 35.7419C34.6076 35.1406 33.545 34.7331 32.4282 34.5388C31.3475 34.3438 30.2138 34.3619 29.08 34.6094C28.5838 34.7156 28.0875 34.8569 27.645 35.0519C27.1663 35.2475 26.7232 35.4775 26.2982 35.7425ZM29.0088 39.9187C28.4238 40.2725 27.6444 40.0963 27.29 39.5119C26.9363 38.9275 27.1132 38.1494 27.6975 37.7956C27.9982 37.6188 28.3001 37.4594 28.6363 37.3356C28.9557 37.2119 29.2919 37.1056 29.6288 37.035C30.4257 36.8581 31.2232 36.8406 31.9851 36.9644C32.765 37.1063 33.5269 37.3894 34.2 37.7962C34.785 38.1681 34.9794 38.9288 34.6069 39.5125C34.2532 40.0969 33.4913 40.2912 32.9063 39.9369C32.4988 39.6894 32.0375 39.5125 31.5775 39.4237C30.6919 39.2819 29.7707 39.4587 29.0088 39.9187ZM23.3213 31.3544C22.7538 31.7438 21.9744 31.6019 21.585 31.0363C21.195 30.47 21.3369 29.6913 21.9038 29.3025C22.7363 28.7181 23.6582 28.2056 24.6144 27.7981C25.5538 27.3738 26.5457 27.055 27.5732 26.825C29.7526 26.3469 31.9313 26.3469 34.0044 26.7719C36.1307 27.1969 38.1507 28.0638 39.9576 29.32C40.5244 29.7094 40.6669 30.47 40.2769 31.0363C39.8694 31.6025 39.1076 31.7438 38.5407 31.3544C37.0344 30.3106 35.3157 29.585 33.5094 29.2138C31.7725 28.8775 29.93 28.86 28.0869 29.2669C27.2188 29.4619 26.3863 29.7269 25.6069 30.0806C24.7926 30.4344 24.03 30.8594 23.3213 31.3544Z" fill="#323232"/>
<path d="M70.4683 8.12187C72.7183 8.12187 74.5608 9.96187 74.5608 12.2094C74.5608 14.4569 72.7358 16.2969 70.4683 16.2969C68.2002 16.2969 66.3758 14.4569 66.3758 12.2094C66.3758 9.94438 68.2183 8.12187 70.4683 8.12187ZM59.0227 0C60.7589 0 62.3177 0.7075 63.4521 1.84062C64.5858 2.97312 65.2952 4.53 65.2952 6.26375C65.2952 7.98 64.5858 9.555 63.4521 10.6875C62.3183 11.82 60.7589 12.51 59.0227 12.51C57.3046 12.51 55.7283 11.82 54.5933 10.6875C53.4596 9.555 52.7683 7.98 52.7683 6.26375C52.7683 4.53 53.4589 2.9725 54.5933 1.84062C55.7277 0.7075 57.3046 0 59.0227 0V0ZM61.6983 3.59188C61.0071 2.91938 60.0683 2.495 59.0227 2.495C57.9952 2.495 57.0383 2.91938 56.3652 3.59188C55.6921 4.28188 55.2671 5.22 55.2671 6.26375C55.2671 7.29 55.6921 8.24563 56.3652 8.91813C57.0383 9.59062 57.9952 10.015 59.0227 10.015C60.0683 10.015 61.0071 9.59 61.6983 8.91813C62.3714 8.24563 62.7964 7.29 62.7964 6.26375C62.7964 5.22 62.3714 4.2825 61.6983 3.59188ZM70.4683 10.6169C69.5821 10.6169 68.8733 11.325 68.8733 12.2094C68.8733 13.0944 69.5821 13.8019 70.4683 13.8019C71.3539 13.8019 72.0627 13.0938 72.0627 12.2094C72.0627 11.325 71.3539 10.6169 70.4683 10.6169Z" fill="#323232"/>
<path d="M56.7901 78.8456C56.737 79.5363 56.1345 80.0494 55.4439 79.9963C54.7526 79.9431 54.2382 79.3413 54.2914 78.6519L58.8451 21.6581C59.0045 19.6588 60.1739 18.19 62.282 18.19H67.4026H72.5051C74.6132 18.19 75.8007 19.6588 75.9601 21.6581L80.4957 78.6519C80.5489 79.3419 80.0351 79.9431 79.362 79.9963C78.6714 80.0494 78.0689 79.5369 78.0157 78.8456L73.462 21.8525C73.4089 21.1625 73.2851 20.685 72.5057 20.685H67.4032H62.2826C61.5207 20.685 61.3795 21.145 61.3264 21.8525L56.7901 78.8456Z" fill="#323232"/>
</svg>
